# Blender 4.5.4 LTS
# www.blender.org
mtllib monka.mtl
o Fart
v 0.540343 -0.173218 0.963965
v -0.540343 -0.173218 0.963965
v 0.605602 -0.229994 0.849202
v -0.605602 -0.229994 0.849202
v 0.662013 -0.257064 0.716290
v -0.662013 -0.257064 0.716290
v 0.418687 -0.316175 0.749945
v -0.418687 -0.316175 0.749945
v 0.419363 -0.277979 0.872431
v -0.419363 -0.277979 0.872431
v 0.431277 -0.197885 0.976108
v -0.431277 -0.197885 0.976108
v 0.341290 -0.167475 1.014002
v -0.341290 -0.167475 1.014002
v 0.250970 -0.221274 0.935410
v -0.250970 -0.221274 0.935410
v 0.195051 -0.242937 0.828863
v -0.195051 -0.242937 0.828863
v 0.107608 -0.019322 0.933387
v -0.107608 -0.019322 0.933387
v 0.187308 -0.059937 1.014507
v -0.187308 -0.059937 1.014507
v 0.314003 -0.086286 1.056337
v -0.314003 -0.086286 1.056337
v 0.367207 0.009267 1.096937
v -0.367207 0.009267 1.096937
v 0.288466 0.135757 1.086833
v -0.288466 0.135757 1.086833
v 0.235910 0.302478 1.018857
v -0.235910 0.302478 1.018857
v 0.540408 0.411560 0.990682
v -0.540408 0.411560 0.990682
v 0.507407 0.210995 1.071998
v -0.507407 0.210995 1.071998
v 0.476404 0.042085 1.086419
v -0.476404 0.042085 1.086419
v 0.580024 -0.005468 1.040492
v -0.580024 -0.005468 1.040492
v 0.690533 0.090159 0.979254
v -0.690533 0.090159 0.979254
v 0.789596 0.200597 0.869390
v -0.789596 0.200597 0.869390
v 0.814035 -0.082212 0.756261
v -0.814035 -0.082212 0.756261
v 0.721769 -0.094979 0.884233
v -0.721769 -0.094979 0.884233
v 0.597142 -0.100560 0.986779
v -0.597142 -0.100560 0.986779
v 0.603485 -0.104869 1.000233
v -0.603485 -0.104869 1.000233
v 0.588434 -0.003706 1.057450
v -0.588434 -0.003706 1.057450
v 0.475497 0.050340 1.115901
v -0.475497 0.050340 1.115901
v 0.355175 0.009518 1.123202
v -0.355175 0.009518 1.123202
v 0.291824 -0.091875 1.079108
v -0.291824 -0.091875 1.079108
v 0.328336 -0.178142 1.032422
v -0.328336 -0.178142 1.032422
v 0.445768 -0.103960 1.070967
v -0.445768 -0.103960 1.070967
v 0.425726 -0.213970 0.990920
v -0.425726 -0.213970 0.990920
v 0.545276 -0.182669 0.974163
v -0.545276 -0.182669 0.974163
v 0.000000 0.216643 1.118793
v 0.000000 0.047872 1.149615
v 0.000000 -0.724820 0.745044
v 0.000000 -0.512700 0.836359
v 0.000000 -0.432706 0.883504
v 0.000000 -0.794556 0.723516
v 0.000000 0.304877 0.958645
v 0.000000 0.710364 0.991172
v 0.000000 1.733665 -0.951460
v 0.000000 0.510022 -1.291001
v 0.000000 -0.228657 -1.019978
v 0.000000 -0.573846 -0.376493
v 0.229985 -0.437247 0.647213
v -0.229985 -0.437247 0.647213
v 0.327648 -0.591763 0.601745
v -0.327648 -0.591763 0.601745
v 0.356220 -0.741049 0.578902
v -0.356220 -0.741049 0.578902
v 0.367649 -0.895206 0.532015
v -0.367649 -0.895206 0.532015
v 0.328190 -0.946047 0.523557
v -0.328190 -0.946047 0.523557
v 0.179694 -0.968888 0.554711
v -0.179694 -0.968888 0.554711
v 0.000000 -0.984375 0.578125
v 0.498315 -0.404248 0.615957
v -0.498315 -0.404248 0.615957
v 0.731109 -0.332390 0.634932
v -0.731109 -0.332390 0.634932
v 1.007235 -0.190845 0.558524
v -1.007235 -0.190845 0.558524
v 1.124355 0.049018 0.800916
v -1.124355 0.049018 0.800916
v 0.984490 0.158270 0.895547
v -0.984490 0.158270 0.895547
v 0.738996 0.407633 1.071424
v -0.738996 0.407633 1.071424
v 0.512124 0.722883 1.220922
v -0.512124 0.722883 1.220922
v 0.249577 0.691952 1.257112
v -0.249577 0.691952 1.257112
v 0.093205 0.312262 1.156836
v -0.093205 0.312262 1.156836
v 0.233285 0.154725 1.132734
v -0.233285 0.154725 1.132734
v 0.170192 0.010158 1.070670
v -0.170192 0.010158 1.070670
v 0.250970 -0.221274 0.935410
v -0.250970 -0.221274 0.935410
v 0.444823 -0.290223 0.848589
v -0.444823 -0.290223 0.848589
v 0.591005 -0.254474 0.822454
v -0.591005 -0.254474 0.822454
v 0.777731 -0.153183 0.825987
v -0.777731 -0.153183 0.825987
v 0.832399 -0.046931 0.865937
v -0.832399 -0.046931 0.865937
v 0.811987 0.047754 0.923677
v -0.811987 0.047754 0.923677
v 0.607473 0.160900 1.048462
v -0.607473 0.160900 1.048462
v 0.362909 0.233958 1.135352
v -0.362909 0.233958 1.135352
v 0.000000 -0.787672 0.739460
v 0.110422 -0.752017 0.742151
v -0.110422 -0.752017 0.742151
v 0.117493 -0.845294 0.712992
v -0.117493 -0.845294 0.712992
v 0.062569 -0.886813 0.696163
v -0.062569 -0.886813 0.696163
v 0.000000 -0.894075 0.688224
v 0.000000 -0.439933 0.835496
v 0.000000 -0.403919 0.845008
v 0.113856 -0.409100 0.841479
v -0.113856 -0.409100 0.841479
v 0.136437 -0.459281 0.825768
v -0.136437 -0.459281 0.825768
v 0.092356 -0.498137 0.803451
v -0.092356 -0.498137 0.803451
v 0.462317 -0.337464 0.792119
v -0.462317 -0.337464 0.792119
v 0.731319 -0.263462 0.755024
v -0.731319 -0.263462 0.755024
v 0.899553 -0.145275 0.763392
v -0.899553 -0.145275 0.763392
v 0.968108 0.009500 0.879792
v -0.968108 0.009500 0.879792
v 0.905416 0.045361 0.981623
v -0.905416 0.045361 0.981623
v 0.625710 0.257595 1.173294
v -0.625710 0.257595 1.173294
v 0.463950 0.404755 1.278928
v -0.463950 0.404755 1.278928
v 0.301142 0.385445 1.300181
v -0.301142 0.385445 1.300181
v 0.141826 0.134508 1.209216
v -0.141826 0.134508 1.209216
v 0.140716 -0.375904 0.924479
v -0.140716 -0.375904 0.924479
v 0.220048 -0.583635 0.745017
v -0.220048 -0.583635 0.745017
v 0.252791 -0.741755 0.696047
v -0.252791 -0.741755 0.696047
v 0.266534 -0.832554 0.666602
v -0.266534 -0.832554 0.666602
v 0.234491 -0.915877 0.633164
v -0.234491 -0.915877 0.633164
v 0.164111 -0.930773 0.633022
v -0.164111 -0.930773 0.633022
v 0.000000 -0.945789 0.640717
v 0.000000 -0.258506 0.905654
v 0.000000 -0.100824 1.024502
v 0.475638 0.236503 1.110969
v -0.475638 0.236503 1.110969
v 0.207282 -0.176056 0.968157
v -0.207282 -0.176056 0.968157
v 0.173401 -0.101670 1.013282
v -0.173401 -0.101670 1.013282
v 0.118620 -0.729618 0.744309
v -0.118620 -0.729618 0.744309
v 0.081450 -0.581636 0.785250
v -0.081450 -0.581636 0.785250
v 0.000000 -0.582127 0.785377
v 0.000000 -0.521201 0.795747
v 0.100779 -0.485568 0.845684
v -0.100779 -0.485568 0.845684
v 0.144185 -0.456067 0.871800
v -0.144185 -0.456067 0.871800
v 0.122490 -0.397681 0.884299
v -0.122490 -0.397681 0.884299
v 0.043909 -0.392598 0.887879
v -0.043909 -0.392598 0.887879
v 0.000000 -0.440264 0.909586
v 0.052018 -0.406984 0.910220
v -0.052018 -0.406984 0.910220
v 0.103725 -0.411816 0.907266
v -0.103725 -0.411816 0.907266
v 0.118392 -0.453678 0.902835
v -0.118392 -0.453678 0.902835
v 0.084294 -0.469882 0.874402
v -0.084294 -0.469882 0.874402
v 0.000000 -0.492664 0.865994
v 0.278959 -0.520662 0.606593
v -0.278959 -0.520662 0.606593
v 0.178914 -0.470767 0.782365
v -0.178914 -0.470767 0.782365
v 0.192266 -0.513196 0.766175
v -0.192266 -0.513196 0.766175
v 0.259025 -0.480167 0.621242
v -0.259025 -0.480167 0.621242
v 0.000000 -0.880084 0.688572
v 0.046952 -0.873164 0.688762
v -0.046952 -0.873164 0.688762
v 0.094064 -0.832309 0.713583
v -0.094064 -0.832309 0.713583
v 0.094494 -0.769953 0.732947
v -0.094494 -0.769953 0.732947
v 0.000000 -0.803744 0.660918
v 0.094536 -0.779402 0.670284
v -0.094536 -0.779402 0.670284
v 0.094176 -0.828736 0.643894
v -0.094176 -0.828736 0.643894
v 0.047002 -0.861313 0.634733
v -0.047002 -0.861313 0.634733
v 0.000000 -0.867985 0.634505
v 0.222901 -0.102212 1.036382
v -0.222901 -0.102212 1.036382
v 0.236544 -0.166241 0.996179
v -0.236544 -0.166241 0.996179
v 0.474260 0.152947 1.102011
v -0.474260 0.152947 1.102011
v 0.385796 0.146444 1.123355
v -0.385796 0.146444 1.123355
v 0.576185 0.079452 1.084914
v -0.576185 0.079452 1.084914
v 0.751518 0.019251 0.955212
v -0.751518 0.019251 0.955212
v 0.760064 -0.053769 0.915025
v -0.760064 -0.053769 0.915025
v 0.723025 -0.144924 0.869624
v -0.723025 -0.144924 0.869624
v 0.576855 -0.224856 0.886452
v -0.576855 -0.224856 0.886452
v 0.449703 -0.254881 0.905601
v -0.449703 -0.254881 0.905601
v 0.278344 -0.213279 0.977662
v -0.278344 -0.213279 0.977662
v 0.241477 -0.011568 1.076766
v -0.241477 -0.011568 1.076766
v 0.292803 0.086960 1.114775
v -0.292803 0.086960 1.114775
v 0.325245 0.075546 1.081917
v -0.325245 0.075546 1.081917
v 0.264411 -0.002618 1.053555
v -0.264411 -0.002618 1.053555
v 0.301312 -0.196118 0.961888
v -0.301312 -0.196118 0.961888
v 0.456064 -0.233778 0.900513
v -0.456064 -0.233778 0.900513
v 0.565190 -0.208811 0.879825
v -0.565190 -0.208811 0.879825
v 0.694311 -0.124371 0.874072
v -0.694311 -0.124371 0.874072
v 0.725294 -0.051695 0.902554
v -0.725294 -0.051695 0.902554
v 0.713472 0.014721 0.939622
v -0.713472 0.014721 0.939622
v 0.569226 0.083389 1.060328
v -0.569226 0.083389 1.060328
v 0.393682 0.116639 1.102921
v -0.393682 0.116639 1.102921
v 0.470989 0.124764 1.082917
v -0.470989 0.124764 1.082917
v 0.259762 -0.145953 0.980905
v -0.259762 -0.145953 0.980905
v 0.256512 -0.085248 1.009487
v -0.256512 -0.085248 1.009487
v 0.169857 0.399587 0.989549
v -0.169857 0.399587 0.989549
v 0.323121 0.802326 1.072186
v -0.323121 0.802326 1.072186
v 0.553440 0.801122 1.028755
v -0.553440 0.801122 1.028755
v 0.750230 0.464025 0.902014
v -0.750230 0.464025 0.902014
v 0.974386 0.197652 0.739463
v -0.974386 0.197652 0.739463
v 1.086722 0.082710 0.657011
v -1.086722 0.082710 0.657011
v 0.971623 -0.163572 0.491109
v -0.971623 -0.163572 0.491109
v 0.724571 -0.296552 0.514706
v -0.724571 -0.296552 0.514706
v 0.513355 -0.368260 0.563569
v -0.513355 -0.368260 0.563569
v 0.000000 1.877345 0.617278
v 0.000000 2.334128 -0.078125
v 0.000000 -0.442302 -0.756363
v 0.000000 -0.626416 0.204529
v 0.000000 -0.977012 0.461002
v 0.000000 -0.834356 0.347264
v 0.000000 -0.689311 0.334569
v 0.000000 -0.639978 0.300728
v 1.118176 -0.079996 0.096269
v -1.118176 -0.079996 0.096269
v 1.175405 0.027210 -0.035383
v -1.175405 0.027210 -0.035383
v 1.034016 -0.039410 -0.558577
v -1.034016 -0.039410 -0.558577
v 0.686808 0.269718 -1.009391
v -0.686808 0.269718 -1.009391
v 0.871271 -0.333370 0.097983
v -0.871271 -0.333370 0.097983
v 0.700108 -0.388939 -0.179456
v -0.700108 -0.388939 -0.179456
v 0.777727 -0.299155 -0.504926
v -0.777727 -0.299155 -0.504926
v 0.427371 -0.231624 -0.823539
v -0.427371 -0.231624 -0.823539
v 0.253855 -0.550099 0.446509
v -0.253855 -0.550099 0.446509
v 0.192903 -0.593987 0.282521
v -0.192903 -0.593987 0.282521
v 0.293467 -0.763780 0.389835
v -0.293467 -0.763780 0.389835
v 0.261095 -0.642133 0.411429
v -0.261095 -0.642133 0.411429
v 0.328537 -0.918670 0.399036
v -0.328537 -0.918670 0.399036
v 0.142283 -0.799253 0.372437
v -0.142283 -0.799253 0.372437
v 0.129955 -0.668839 0.376718
v -0.129955 -0.668839 0.376718
v 0.164160 -0.947518 0.437807
v -0.164160 -0.947518 0.437807
v 0.242492 -0.502793 0.484802
v -0.242492 -0.502793 0.484802
v 0.238010 -0.464680 0.538937
v -0.238010 -0.464680 0.538937
v 0.233754 -0.425338 0.587176
v -0.233754 -0.425338 0.587176
v 0.228947 -0.578904 0.184740
v -0.228947 -0.578904 0.184740
v 0.331459 -0.524993 -0.287467
v -0.331459 -0.524993 -0.287467
v 0.402523 -0.406578 -0.617871
v -0.402523 -0.406578 -0.617871
v 0.827306 1.552376 -0.634417
v -0.827306 1.552376 -0.634417
v 0.848995 1.812366 -0.063487
v -0.848995 1.812366 -0.063487
v 0.824627 1.515621 0.490584
v -0.824627 1.515621 0.490584
v 0.737020 0.547269 0.733846
v -0.737020 0.547269 0.733846
v 1.042634 0.166175 0.516064
v -1.042634 0.166175 0.516064
v 0.967700 0.348663 0.471433
v -0.967700 0.348663 0.471433
v 1.097704 1.017223 0.149448
v -1.097704 1.017223 0.149448
v 1.224864 0.446435 0.234095
v -1.224864 0.446435 0.234095
v 1.261076 0.583084 -0.139942
v -1.261076 0.583084 -0.139942
v 1.111397 1.127455 -0.281429
v -1.111397 1.127455 -0.281429
v 1.058195 0.807384 -0.684651
v -1.058195 0.807384 -0.684651
v 1.202840 0.377629 -0.502657
v -1.202840 0.377629 -0.502657
v 0.867246 0.072754 -0.791682
v -0.867246 0.072754 -0.791682
v 0.606247 -0.263380 -0.664815
v -0.606247 -0.263380 -0.664815
v 1.139199 0.054477 -0.251717
v -1.139199 0.054477 -0.251717
v 0.478646 -0.421713 0.188812
v -0.478646 -0.421713 0.188812
v 0.501358 -0.439780 -0.233090
v -0.501358 -0.439780 -0.233090
v 1.243325 0.117752 -0.296252
v -1.243325 0.117752 -0.296252
v 0.877152 -0.404288 -0.131286
v -0.877152 -0.404288 -0.131286
v 1.140337 -0.363831 -0.352492
v -1.140337 -0.363831 -0.352492
v 1.414307 -0.225979 -0.466197
v -1.414307 -0.225979 -0.466197
v 1.567787 -0.059519 -0.476868
v -1.567787 -0.059519 -0.476868
v 1.549607 0.070496 -0.509661
v -1.549607 0.070496 -0.509661
v 1.384376 0.118918 -0.395158
v -1.384376 0.118918 -0.395158
v 1.348511 0.054319 -0.358200
v -1.348511 0.054319 -0.358200
v 1.484188 0.019635 -0.468701
v -1.484188 0.019635 -0.468701
v 1.481295 -0.093364 -0.462164
v -1.481295 -0.093364 -0.462164
v 1.354935 -0.231648 -0.445269
v -1.354935 -0.231648 -0.445269
v 1.153248 -0.327501 -0.331490
v -1.153248 -0.327501 -0.331490
v 0.955701 -0.354335 -0.141237
v -0.955701 -0.354335 -0.141237
v 1.247265 0.040043 -0.268386
v -1.247265 0.040043 -0.268386
v 1.232422 -0.038501 -0.353128
v -1.232422 -0.038501 -0.353128
v 1.024257 -0.321113 -0.232217
v -1.024257 -0.321113 -0.232217
v 1.170972 -0.301085 -0.403884
v -1.170972 -0.301085 -0.403884
v 1.336043 -0.224664 -0.491244
v -1.336043 -0.224664 -0.491244
v 1.435356 -0.121240 -0.505098
v -1.435356 -0.121240 -0.505098
v 1.429694 -0.043845 -0.516565
v -1.429694 -0.043845 -0.516565
v 1.310559 -0.027767 -0.438279
v -1.310559 -0.027767 -0.438279
v 1.139952 -0.010605 -0.257562
v -1.139952 -0.010605 -0.257562
v 1.066992 -0.147361 -0.327422
v -1.066992 -0.147361 -0.327422
v 0.953775 -0.210997 -0.323943
v -0.953775 -0.210997 -0.323943
v 1.010402 -0.228175 -0.318697
v -1.010402 -0.228175 -0.318697
v 1.000982 -0.290191 -0.309834
v -1.000982 -0.290191 -0.309834
v 0.958089 -0.313174 -0.308435
v -0.958089 -0.313174 -0.308435
v 0.886379 -0.291836 -0.068594
v -0.886379 -0.291836 -0.068594
v 0.867199 -0.312190 -0.191238
v -0.867199 -0.312190 -0.191238
v 0.894130 -0.255680 -0.214188
v -0.894130 -0.255680 -0.214188
v 1.050369 -0.098156 -0.253187
v -1.050369 -0.098156 -0.253187
v 1.153804 -0.086979 -0.321031
v -1.153804 -0.086979 -0.321031
v 1.144622 -0.099046 -0.389382
v -1.144622 -0.099046 -0.389382
v 0.955362 -0.313749 -0.362896
v -0.955362 -0.313749 -0.362896
v 1.005484 -0.291268 -0.364088
v -1.005484 -0.291268 -0.364088
v 1.010721 -0.237689 -0.373713
v -1.010721 -0.237689 -0.373713
v 0.957770 -0.214600 -0.381093
v -0.957770 -0.214600 -0.381093
v 1.070155 -0.151887 -0.385299
v -1.070155 -0.151887 -0.385299
v 1.308602 -0.050363 -0.501207
v -1.308602 -0.050363 -0.501207
v 1.429917 -0.057153 -0.567307
v -1.429917 -0.057153 -0.567307
v 1.449312 -0.121298 -0.555228
v -1.449312 -0.121298 -0.555228
v 1.353251 -0.222642 -0.532119
v -1.353251 -0.222642 -0.532119
v 1.175069 -0.299185 -0.463969
v -1.175069 -0.299185 -0.463969
v 1.025192 -0.315566 -0.295865
v -1.025192 -0.315566 -0.295865
v 1.225161 -0.061618 -0.419563
v -1.225161 -0.061618 -0.419563
v 1.082711 -0.217843 -0.382044
v -1.082711 -0.217843 -0.382044
v 1.104074 -0.259231 -0.381745
v -1.104074 -0.259231 -0.381745
v 1.184965 -0.214598 -0.420654
v -1.184965 -0.214598 -0.420654
v 1.173188 -0.173246 -0.411959
v -1.173188 -0.173246 -0.411959
v 1.248128 -0.127605 -0.442962
v -1.248128 -0.127605 -0.442962
v 1.259205 -0.169511 -0.441895
v -1.259205 -0.169511 -0.441895
v 1.315941 -0.153870 -0.448813
v -1.315941 -0.153870 -0.448813
v 1.324413 -0.103897 -0.459251
v -1.324413 -0.103897 -0.459251
v 1.337602 0.053177 -0.609081
v -1.337602 0.053177 -0.609081
v 1.527336 0.035633 -0.650876
v -1.527336 0.035633 -0.650876
v 1.568538 -0.064240 -0.562131
v -1.568538 -0.064240 -0.562131
v 1.440326 -0.208526 -0.575380
v -1.440326 -0.208526 -0.575380
v 1.137890 -0.347849 -0.531570
v -1.137890 -0.347849 -0.531570
v 0.891934 -0.393119 -0.360718
v -0.891934 -0.393119 -0.360718
v 1.184149 0.081359 -0.497960
v -1.184149 0.081359 -0.497960
vn 0.5243 -0.6039 0.6004
vn -0.5243 -0.6039 0.6004
vn 0.6421 -0.6530 0.4017
vn -0.6421 -0.6530 0.4017
vn 0.2676 -0.9179 0.2930
vn -0.2676 -0.9179 0.2930
vn 0.2607 -0.7882 0.5575
vn -0.2607 -0.7882 0.5575
vn -0.0329 -0.7966 0.6036
vn 0.0329 -0.7966 0.6036
vn -0.2030 -0.9339 0.2943
vn 0.2030 -0.9339 0.2943
vn -0.7218 -0.5077 0.4704
vn 0.7218 -0.5077 0.4704
vn -0.3623 -0.5224 0.7719
vn 0.3623 -0.5224 0.7719
vn -0.3568 -0.1673 0.9191
vn 0.3568 -0.1673 0.9191
vn -0.6852 0.0832 0.7236
vn 0.6852 0.0832 0.7236
vn -0.0554 0.3734 0.9260
vn 0.0554 0.3734 0.9260
vn 0.0472 0.0902 0.9948
vn -0.0472 0.0902 0.9948
vn 0.4441 0.0186 0.8958
vn -0.4441 0.0186 0.8958
vn 0.5721 0.2393 0.7845
vn -0.5721 0.2393 0.7845
vn 0.8076 -0.1568 0.5685
vn -0.8076 -0.1568 0.5685
vn 0.6267 -0.2782 0.7279
vn -0.6267 -0.2782 0.7279
vn 0.8520 0.3564 -0.3835
vn -0.8520 0.3564 -0.3835
vn 0.3108 0.9175 -0.2481
vn -0.3108 0.9175 -0.2481
vn -0.3135 0.9252 -0.2139
vn 0.3135 0.9252 -0.2139
vn -0.6914 0.5891 -0.4183
vn 0.6914 0.5891 -0.4183
vn -0.7689 0.0460 -0.6377
vn 0.7689 0.0460 -0.6377
vn -0.4828 -0.5310 -0.6964
vn 0.4828 -0.5310 -0.6964
vn 0.0811 -0.6984 -0.7111
vn -0.0811 -0.6984 -0.7111
vn 0.7326 -0.3755 -0.5677
vn -0.7326 -0.3755 -0.5677
vn 0.3468 -0.5209 0.7800
vn -0.3468 -0.5209 0.7800
vn 0.2628 -0.5985 0.7568
vn -0.2628 -0.5985 0.7568
vn 0.1177 -0.5982 0.7927
vn -0.1177 -0.5982 0.7927
vn 0.0095 -0.4728 0.8811
vn -0.0095 -0.4728 0.8811
vn 0.0163 -0.4073 0.9131
vn -0.0163 -0.4073 0.9131
vn 0.1602 -0.3043 0.9390
vn -0.1602 -0.3043 0.9390
vn 0.3100 -0.3204 0.8951
vn -0.3100 -0.3204 0.8951
vn 0.3703 -0.4150 0.8311
vn -0.3703 -0.4150 0.8311
vn 0.1207 -0.8662 0.4849
vn -0.1207 -0.8662 0.4849
vn 0.2128 -0.8721 0.4406
vn -0.2128 -0.8721 0.4406
vn 0.5702 -0.5060 0.6472
vn -0.5702 -0.5060 0.6472
vn 0.7552 -0.1230 0.6439
vn -0.7552 -0.1230 0.6439
vn 0.7770 0.0079 0.6294
vn -0.7770 0.0079 0.6294
vn 0.2002 -0.9270 0.3173
vn -0.2002 -0.9270 0.3173
vn 0.2665 -0.8637 0.4278
vn -0.2665 -0.8637 0.4278
vn 0.5037 -0.7490 0.4305
vn -0.5037 -0.7490 0.4305
vn 0.5184 -0.6958 0.4971
vn -0.5184 -0.6958 0.4971
vn 0.6308 -0.1501 0.7613
vn -0.6308 -0.1501 0.7613
vn 0.6258 0.0956 0.7741
vn -0.6258 0.0956 0.7741
vn 0.6006 0.0650 0.7969
vn -0.6006 0.0650 0.7969
vn 0.1136 0.1593 0.9807
vn -0.1136 0.1593 0.9807
vn -0.5769 0.0414 0.8157
vn 0.5769 0.0414 0.8157
vn -0.4720 0.1426 0.8700
vn 0.4720 0.1426 0.8700
vn 0.4833 -0.6029 0.6348
vn -0.4833 -0.6029 0.6348
vn 0.1711 -0.6913 0.7020
vn -0.1711 -0.6913 0.7020
vn -0.1730 -0.7284 0.6630
vn 0.1730 -0.7284 0.6630
vn -0.1956 -0.8177 0.5414
vn 0.1956 -0.8177 0.5414
vn -0.0137 -0.7774 0.6289
vn 0.0137 -0.7774 0.6289
vn 0.2899 -0.5888 0.7545
vn -0.2899 -0.5888 0.7545
vn 0.3512 -0.6067 0.7131
vn -0.3512 -0.6067 0.7131
vn 0.2833 -0.6847 0.6715
vn -0.2833 -0.6847 0.6715
vn 0.3311 -0.4322 0.8388
vn -0.3311 -0.4322 0.8388
vn -0.0887 -0.1844 0.9788
vn 0.0887 -0.1844 0.9788
vn 0.3505 -0.6602 0.6643
vn -0.3505 -0.6602 0.6643
vn 0.1492 -0.5661 0.8107
vn -0.1492 -0.5661 0.8107
vn 0.0133 -0.5757 0.8175
vn -0.0133 -0.5757 0.8175
vn 0.0702 -0.7218 0.6885
vn -0.0702 -0.7218 0.6885
vn 0.1755 -0.6199 0.7648
vn -0.1755 -0.6199 0.7648
vn 0.3053 -0.3562 0.8831
vn -0.3053 -0.3562 0.8831
vn 0.2921 -0.2075 0.9336
vn -0.2921 -0.2075 0.9336
vn 0.3147 -0.2409 0.9181
vn -0.3147 -0.2409 0.9181
vn -0.0166 -0.1928 0.9811
vn 0.0166 -0.1928 0.9811
vn -0.0017 -0.2695 0.9630
vn 0.0017 -0.2695 0.9630
vn 0.0037 -0.0908 0.9959
vn -0.0037 -0.0908 0.9959
vn 0.6045 -0.7960 0.0316
vn -0.6045 -0.7960 0.0316
vn 0.8785 0.4183 -0.2309
vn -0.8785 0.4183 -0.2309
vn 0.0408 0.9592 -0.2796
vn -0.0408 0.9592 -0.2796
vn -0.8446 0.4287 0.3206
vn 0.8446 0.4287 0.3206
vn 0.2274 -0.9490 0.2182
vn -0.2274 -0.9490 0.2182
vn 0.1683 -0.8188 0.5488
vn -0.1683 -0.8188 0.5488
vn -0.5659 0.7112 0.4171
vn 0.5659 0.7112 0.4171
vn 0.0908 0.8330 0.5457
vn -0.0908 0.8330 0.5457
vn 0.7440 0.1603 0.6487
vn -0.7440 0.1603 0.6487
vn 0.2211 -0.8790 0.4223
vn -0.2211 -0.8790 0.4223
vn 0.0471 -0.0904 0.9948
vn -0.0471 -0.0904 0.9948
vn 0.0282 -0.7304 0.6824
vn -0.0282 -0.7304 0.6824
vn -0.3177 -0.5648 0.7616
vn 0.3177 -0.5648 0.7616
vn -0.1310 -0.7546 0.6430
vn 0.1310 -0.7546 0.6430
vn 0.3519 -0.5061 0.7875
vn -0.3519 -0.5061 0.7875
vn 0.2889 -0.2073 0.9346
vn -0.2889 -0.2073 0.9346
vn 0.7992 0.3408 0.4952
vn -0.7992 0.3408 0.4952
vn 0.8757 0.1858 0.4457
vn -0.8757 0.1858 0.4457
vn 0.9337 0.0194 0.3576
vn -0.9337 0.0194 0.3576
vn 0.1850 -0.7555 0.6285
vn -0.1850 -0.7555 0.6285
vn -0.1678 -0.2999 0.9391
vn 0.1678 -0.2999 0.9391
vn -0.2679 -0.1494 0.9518
vn 0.2679 -0.1494 0.9518
vn -0.0976 0.1939 0.9761
vn 0.0976 0.1939 0.9761
vn -0.1408 0.9666 0.2141
vn 0.1408 0.9666 0.2141
vn -0.6328 0.7685 0.0950
vn 0.6328 0.7685 0.0950
vn -1.0000 0.0077 -0.0015
vn 1.0000 0.0077 -0.0015
vn 0.2347 -0.9615 0.1431
vn -0.2347 -0.9615 0.1431
vn 0.0248 -0.3970 0.9175
vn -0.0248 -0.3970 0.9175
vn 0.1534 -0.4670 0.8709
vn -0.1534 -0.4670 0.8709
vn -0.3960 -0.5765 0.7147
vn 0.3960 -0.5765 0.7147
vn -0.2843 -0.3993 0.8716
vn 0.2843 -0.3993 0.8716
vn -0.1353 -0.3220 0.9370
vn 0.1353 -0.3220 0.9370
vn -0.4460 -0.7135 0.5403
vn 0.4460 -0.7135 0.5403
vn -0.0891 -0.9019 0.4227
vn 0.0891 -0.9019 0.4227
vn 0.2794 -0.8369 0.4707
vn -0.2794 -0.8369 0.4707
vn 0.4219 -0.7363 0.5290
vn -0.4219 -0.7363 0.5290
vn 0.4966 -0.5284 0.6886
vn -0.4966 -0.5284 0.6886
vn 0.5524 -0.3471 0.7578
vn -0.5524 -0.3471 0.7578
vn 0.5673 0.0353 0.8227
vn -0.5673 0.0353 0.8227
vn 0.3675 0.0816 0.9264
vn -0.3675 0.0816 0.9264
vn 0.2246 -0.0906 0.9702
vn -0.2246 -0.0906 0.9702
vn 0.0518 -0.1626 0.9853
vn -0.0518 -0.1626 0.9853
vn 0.2743 -0.6490 0.7096
vn -0.2743 -0.6490 0.7096
vn 0.2488 -0.5319 0.8094
vn -0.2488 -0.5319 0.8094
vn -0.3471 -0.7831 0.5160
vn 0.3471 -0.7831 0.5160
vn -0.1984 -0.9512 0.2363
vn 0.1984 -0.9512 0.2363
vn -0.2977 -0.4956 0.8159
vn 0.2977 -0.4956 0.8159
vn -0.2299 -0.3191 0.9194
vn 0.2299 -0.3191 0.9194
vn 0.0279 0.0900 0.9955
vn -0.0279 0.0900 0.9955
vn 0.0872 0.3109 0.9464
vn -0.0872 0.3109 0.9464
vn 0.4090 0.1749 0.8956
vn -0.4090 0.1749 0.8956
vn 0.5002 0.0966 0.8605
vn -0.5002 0.0966 0.8605
vn 0.5669 -0.5797 0.5853
vn -0.5669 -0.5797 0.5853
vn 0.7040 -0.3952 0.5901
vn -0.7040 -0.3952 0.5901
vn 0.6835 -0.2793 0.6744
vn -0.6835 -0.2793 0.6744
vn -0.6098 0.7491 0.2589
vn 0.6098 0.7491 0.2589
vn -0.9037 0.3958 -0.1632
vn 0.9037 0.3958 -0.1632
vn 0.0192 0.8918 0.4519
vn -0.0192 0.8918 0.4519
vn 0.8544 0.4339 0.2857
vn -0.8544 0.4339 0.2857
vn 0.7829 0.5961 0.1781
vn -0.7829 0.5961 0.1781
vn 0.6885 0.7222 0.0663
vn -0.6885 0.7222 0.0663
vn 0.9227 -0.1386 -0.3598
vn -0.9227 -0.1386 -0.3598
vn 0.3752 -0.8498 -0.3701
vn -0.3752 -0.8498 -0.3701
vn 0.2651 -0.8948 -0.3593
vn -0.2651 -0.8948 -0.3593
vn 0.2012 -0.7507 -0.6292
vn -0.2012 -0.7507 -0.6292
vn 0.2436 -0.0187 -0.9697
vn -0.2436 -0.0187 -0.9697
vn 0.1140 -0.5146 -0.8498
vn -0.1140 -0.5146 -0.8498
vn 0.1115 -0.9854 -0.1284
vn -0.1115 -0.9854 -0.1284
vn 0.1151 -0.9723 -0.2036
vn -0.1151 -0.9723 -0.2036
vn 0.9602 -0.0215 -0.2786
vn -0.9602 -0.0215 -0.2786
vn 0.9157 0.2277 -0.3313
vn -0.9157 0.2277 -0.3313
vn 0.1528 0.1277 -0.9800
vn -0.1528 0.1277 -0.9800
vn -0.0164 -0.2417 -0.9702
vn 0.0164 -0.2417 -0.9702
vn 0.7201 -0.4326 -0.5425
vn -0.7201 -0.4326 -0.5425
vn 0.9002 0.2233 -0.3739
vn -0.9002 0.2233 -0.3739
vn 0.8845 0.4311 -0.1787
vn -0.8845 0.4311 -0.1787
vn 0.8340 0.5044 -0.2235
vn -0.8340 0.5044 -0.2235
vn 0.9155 0.4010 -0.0337
vn -0.9155 0.4010 -0.0337
vn 0.1140 -0.9207 -0.3732
vn -0.1140 -0.9207 -0.3732
vn 0.2736 -0.7479 -0.6048
vn -0.2736 -0.7479 -0.6048
vn 0.2023 -0.9299 -0.3070
vn -0.2023 -0.9299 -0.3070
vn 0.1787 -0.9805 -0.0817
vn -0.1787 -0.9805 -0.0817
vn 0.2061 -0.9728 -0.1054
vn -0.2061 -0.9728 -0.1054
vn 0.9144 -0.4025 -0.0427
vn -0.9144 -0.4025 -0.0427
vn 0.6120 -0.7709 0.1767
vn -0.6120 -0.7709 0.1767
vn 0.2920 -0.3839 -0.8760
vn -0.2920 -0.3839 -0.8760
vn 0.4363 0.7667 0.4709
vn -0.4363 0.7667 0.4709
vn 0.4189 0.7773 -0.4694
vn -0.4189 0.7773 -0.4694
vn 0.4123 0.2283 -0.8820
vn -0.4123 0.2283 -0.8820
vn 0.8420 0.5065 0.1859
vn -0.8420 0.5065 0.1859
vn 0.5882 0.2875 0.7558
vn -0.5882 0.2875 0.7558
vn 0.9539 0.2653 0.1405
vn -0.9539 0.2653 0.1405
vn 0.9427 0.1949 -0.2709
vn -0.9427 0.1949 -0.2709
vn 0.7096 -0.1235 -0.6937
vn -0.7096 -0.1235 -0.6937
vn 0.5668 0.1022 -0.8175
vn -0.5668 0.1022 -0.8175
vn 0.8892 0.3598 -0.2826
vn -0.8892 0.3598 -0.2826
vn 0.9254 0.3362 0.1747
vn -0.9254 0.3362 0.1747
vn 0.8134 0.0903 0.5746
vn -0.8134 0.0903 0.5746
vn 0.7977 0.5457 0.2567
vn -0.7977 0.5457 0.2567
vn 0.3102 0.2522 0.9166
vn -0.3102 0.2522 0.9166
vn -0.1737 0.2587 -0.9502
vn 0.1737 0.2587 -0.9502
vn 0.2560 0.4748 0.8420
vn -0.2560 0.4748 0.8420
vn -0.1355 -0.0792 0.9876
vn 0.1355 -0.0792 0.9876
vn 0.9690 -0.2176 0.1175
vn -0.9690 -0.2176 0.1175
vn 0.9211 -0.2620 0.2878
vn -0.9211 -0.2620 0.2878
vn 0.9861 -0.1603 -0.0445
vn -0.9861 -0.1603 -0.0445
vn 0.9553 -0.2741 -0.1106
vn -0.9553 -0.2741 -0.1106
vn 0.4963 -0.8675 0.0347
vn -0.4963 -0.8675 0.0347
vn 0.2319 -0.9713 0.0530
vn -0.2319 -0.9713 0.0530
vn 0.2853 -0.9469 0.1484
vn -0.2853 -0.9469 0.1484
vn 0.4001 -0.9016 0.1643
vn -0.4001 -0.9016 0.1643
vn 0.5211 -0.8326 0.1877
vn -0.5211 -0.8326 0.1877
vn 0.2061 -0.7493 0.6293
vn -0.2061 -0.7493 0.6293
vn 0.4757 -0.6061 -0.6375
vn -0.4757 -0.6061 -0.6375
vn 0.4238 -0.5360 -0.7302
vn -0.4238 -0.5360 -0.7302
vn 0.2006 -0.9384 -0.2815
vn -0.2006 -0.9384 -0.2815
vn 0.5136 -0.8335 -0.2038
vn -0.5136 -0.8335 -0.2038
vn 0.3790 -0.7270 -0.5726
vn -0.3790 -0.7270 -0.5726
vn 0.5905 0.2211 0.7762
vn -0.5905 0.2211 0.7762
vn 0.6010 0.0122 0.7992
vn -0.6010 0.0122 0.7992
vn 0.2541 0.1701 0.9521
vn -0.2541 0.1701 0.9521
vn 0.2768 -0.1686 0.9460
vn -0.2768 -0.1686 0.9460
vn 0.5261 -0.2940 0.7980
vn -0.5261 -0.2940 0.7980
vn 0.5548 -0.6540 0.5143
vn -0.5548 -0.6540 0.5143
vn 0.4215 0.7572 0.4990
vn -0.4215 0.7572 0.4990
vn -0.2885 0.9208 0.2627
vn 0.2885 0.9208 0.2627
vn -0.6684 0.6662 0.3309
vn 0.6684 0.6662 0.3309
vn -0.6977 0.0574 0.7141
vn 0.6977 0.0574 0.7141
vn 0.3064 -0.7307 0.6100
vn -0.3064 -0.7307 0.6100
vn 0.5610 -0.6755 0.4786
vn -0.5610 -0.6755 0.4786
vn 0.4938 -0.8667 -0.0704
vn -0.4938 -0.8667 -0.0704
vn -0.1948 0.5202 0.8315
vn 0.1948 0.5202 0.8315
vn 0.7251 -0.6702 -0.1584
vn -0.7251 -0.6702 -0.1584
vn 0.1709 0.1557 0.9729
vn -0.1709 0.1557 0.9729
vn 0.1171 0.9639 0.2390
vn -0.1171 0.9639 0.2390
vn 0.6501 -0.3673 0.6652
vn -0.6501 -0.3673 0.6652
vn 0.5369 0.4475 0.7152
vn -0.5369 0.4475 0.7152
vn 0.6350 -0.7197 0.2809
vn -0.6350 -0.7197 0.2809
vn 0.4867 -0.5892 0.6450
vn -0.4867 -0.5892 0.6450
vn 0.4724 -0.6109 0.6354
vn -0.4724 -0.6109 0.6354
vn 0.8633 -0.5019 -0.0523
vn -0.8633 -0.5019 -0.0523
vn 0.7286 -0.6816 -0.0678
vn -0.7286 -0.6816 -0.0678
vn 0.8904 -0.4505 -0.0645
vn -0.8904 -0.4505 -0.0645
vn 0.5159 -0.8421 0.1569
vn -0.5159 -0.8421 0.1569
vn 0.5720 -0.8164 0.0800
vn -0.5720 -0.8164 0.0800
vn 0.4890 -0.8675 0.0917
vn -0.4890 -0.8675 0.0917
vn 0.3530 0.9308 -0.0953
vn -0.3530 0.9308 -0.0953
vn 0.9916 -0.1169 0.0551
vn -0.9916 -0.1169 0.0551
vn 0.4395 -0.8980 0.0208
vn -0.4395 -0.8980 0.0208
vn 0.0278 0.9987 0.0416
vn -0.0278 0.9987 0.0416
vn 0.4061 -0.8703 0.2786
vn -0.4061 -0.8703 0.2786
vn 0.0890 -0.9502 0.2988
vn -0.0890 -0.9502 0.2988
vn -0.9752 -0.1912 -0.1117
vn 0.9752 -0.1912 -0.1117
vn -0.7242 0.6487 -0.2340
vn 0.7242 0.6487 -0.2340
vn -0.4271 0.9025 -0.0551
vn 0.4271 0.9025 -0.0551
vn -0.0562 0.9967 0.0577
vn 0.0562 0.9967 0.0577
vn 0.1130 0.1222 0.9860
vn -0.1130 0.1222 0.9860
vn 0.3516 0.0459 0.9350
vn -0.3516 0.0459 0.9350
vn 0.3285 0.0037 0.9445
vn -0.3285 0.0037 0.9445
vn 0.1339 0.1269 0.9828
vn -0.1339 0.1269 0.9828
vn 0.4567 0.2793 0.8446
vn -0.4567 0.2793 0.8446
vn 0.4253 -0.1371 0.8946
vn -0.4253 -0.1371 0.8946
vn 0.2375 -0.0639 0.9693
vn -0.2375 -0.0639 0.9693
vn 0.0108 0.1264 0.9919
vn -0.0108 0.1264 0.9919
vn -0.2725 0.8788 0.3917
vn 0.2725 0.8788 0.3917
vn 0.6830 -0.2199 0.6966
vn -0.6830 -0.2199 0.6966
vn 0.4809 -0.4410 0.7578
vn -0.4809 -0.4410 0.7578
vn 0.5306 -0.5215 0.6682
vn -0.5306 -0.5215 0.6682
vn 0.6140 0.2090 0.7611
vn -0.6140 0.2090 0.7611
vn 0.3964 0.6360 0.6621
vn -0.3964 0.6360 0.6621
vn 0.1189 -0.9910 -0.0623
vn -0.1189 -0.9910 -0.0623
vn 0.4164 -0.9064 -0.0711
vn -0.4164 -0.9064 -0.0711
vn 0.7394 -0.6708 0.0579
vn -0.7394 -0.6708 0.0579
vn 0.9746 0.1856 -0.1251
vn -0.9746 0.1856 -0.1251
vn 0.0539 0.9579 -0.2818
vn -0.0539 0.9579 -0.2818
vn -0.0687 0.9727 -0.2215
vn 0.0687 0.9727 -0.2215
vn -0.5758 0.1253 -0.8080
vn 0.5758 0.1253 -0.8080
vn -0.1264 -0.1754 -0.9764
vn 0.1264 -0.1754 -0.9764
vn 0.5464 -0.4190 -0.7252
vn -0.5464 -0.4190 -0.7252
vn -0.5855 0.8105 -0.0184
vn 0.5855 0.8105 -0.0184
vn 0.5402 -0.5656 -0.6231
vn -0.5402 -0.5656 -0.6231
vn -0.2190 -0.9529 -0.2098
vn 0.2190 -0.9529 -0.2098
vt 0.843250 0.588863
vt 0.833697 0.611927
vt 0.794218 0.611927
vt 0.815334 0.560948
vt 0.866314 0.937441
vt 0.866314 0.897962
vt 0.889378 0.888409
vt 0.917293 0.916324
vt 0.746541 0.611927
vt 0.781622 0.527235
vt 0.866314 0.985118
vt 0.951006 0.950037
vt 0.815334 0.662907
vt 0.781622 0.696619
vt 0.781622 0.950037
vt 0.815334 0.916325
vt 0.843250 0.634991
vt 0.843250 0.888409
vt 0.866314 0.644544
vt 0.866314 0.684023
vt 0.794218 0.865345
vt 0.833697 0.865345
vt 0.866314 0.731700
vt 0.746541 0.865345
vt 0.917293 0.662907
vt 0.951006 0.696619
vt 0.781622 0.780653
vt 0.815334 0.814366
vt 0.889378 0.634991
vt 0.843250 0.842281
vt 0.898931 0.611927
vt 0.938410 0.611927
vt 0.866314 0.793249
vt 0.866314 0.832728
vt 0.986087 0.611927
vt 0.866314 0.745572
vt 0.917294 0.560947
vt 0.951006 0.527235
vt 0.951006 0.780653
vt 0.917294 0.814365
vt 0.889378 0.588863
vt 0.889378 0.842281
vt 0.866314 0.579310
vt 0.866314 0.539831
vt 0.938410 0.865345
vt 0.898931 0.865345
vt 0.866314 0.492154
vt 0.986087 0.865345
vt 0.866314 0.585461
vt 0.847600 0.593213
vt 0.892780 0.865345
vt 0.885028 0.884059
vt 0.885028 0.593213
vt 0.885028 0.846631
vt 0.892780 0.611927
vt 0.866314 0.838879
vt 0.885028 0.630641
vt 0.847600 0.846631
vt 0.866314 0.638393
vt 0.839848 0.865345
vt 0.847600 0.630641
vt 0.847600 0.884059
vt 0.839848 0.611927
vt 0.866314 0.891811
vt 0.866314 0.611927
vt 0.866314 0.865345
vt 0.520711 0.060503
vt 0.517028 0.068490
vt 0.500000 0.064527
vt 0.500000 0.054411
vt 0.482972 0.068490
vt 0.479289 0.060503
vt 0.530457 0.065062
vt 0.522612 0.070678
vt 0.477388 0.070678
vt 0.469543 0.065062
vt 0.532878 0.067822
vt 0.526301 0.079422
vt 0.473699 0.079422
vt 0.467122 0.067822
vt 0.544695 0.083023
vt 0.529228 0.091098
vt 0.470772 0.091098
vt 0.455305 0.083023
vt 0.565647 0.115495
vt 0.537536 0.127779
vt 0.462464 0.127779
vt 0.434353 0.115495
vt 0.586916 0.172042
vt 0.626605 0.208159
vt 0.600470 0.238288
vt 0.535885 0.215568
vt 0.399530 0.238288
vt 0.373395 0.208159
vt 0.413084 0.172042
vt 0.464115 0.215568
vt 0.650908 0.240294
vt 0.636962 0.261221
vt 0.363038 0.261221
vt 0.349092 0.240294
vt 0.689501 0.268805
vt 0.655896 0.284413
vt 0.344104 0.284413
vt 0.310499 0.268805
vt 0.684517 0.317795
vt 0.659507 0.313152
vt 0.340493 0.313152
vt 0.315483 0.317795
vt 0.671357 0.334694
vt 0.649107 0.322437
vt 0.350893 0.322437
vt 0.328643 0.334694
vt 0.636775 0.370732
vt 0.613636 0.353108
vt 0.386364 0.353108
vt 0.363225 0.370732
vt 0.602261 0.395588
vt 0.594178 0.371277
vt 0.405822 0.371277
vt 0.397739 0.395588
vt 0.581044 0.398468
vt 0.577351 0.373341
vt 0.422649 0.373341
vt 0.418956 0.398468
vt 0.532016 0.387365
vt 0.539817 0.354339
vt 0.460183 0.354339
vt 0.467984 0.387365
vt 0.500000 0.382860
vt 0.500000 0.340417
vt 0.559135 0.334326
vt 0.579057 0.335646
vt 0.420943 0.335646
vt 0.440865 0.334326
vt 0.592090 0.332885
vt 0.407910 0.332885
vt 0.606163 0.325516
vt 0.393837 0.325516
vt 0.628251 0.311636
vt 0.371749 0.311636
vt 0.635551 0.300507
vt 0.364449 0.300507
vt 0.631484 0.283889
vt 0.368516 0.283889
vt 0.611331 0.264411
vt 0.388669 0.264411
vt 0.592372 0.254897
vt 0.407628 0.254897
vt 0.559669 0.267717
vt 0.440331 0.267717
vt 0.550878 0.277832
vt 0.500000 0.252445
vt 0.449122 0.277832
vt 0.544001 0.314523
vt 0.455999 0.314523
vt 0.500000 0.295691
vt 0.543637 0.293371
vt 0.456363 0.293371
vt 0.506819 0.075382
vt 0.500000 0.073497
vt 0.493181 0.075382
vt 0.511782 0.080633
vt 0.488218 0.080633
vt 0.512172 0.093457
vt 0.487828 0.093457
vt 0.514257 0.133422
vt 0.513874 0.097191
vt 0.486126 0.097191
vt 0.485743 0.133422
vt 0.520226 0.164615
vt 0.500000 0.157864
vt 0.500000 0.134352
vt 0.479774 0.164615
vt 0.500000 0.100063
vt 0.500000 0.091346
vt 0.530258 0.180239
vt 0.521901 0.181560
vt 0.517666 0.172353
vt 0.482334 0.172353
vt 0.478099 0.181560
vt 0.469742 0.180239
vt 0.523673 0.198817
vt 0.518957 0.194728
vt 0.481043 0.194728
vt 0.476327 0.198817
vt 0.500000 0.203867
vt 0.508211 0.197295
vt 0.491789 0.197295
vt 0.500000 0.197278
vt 0.500000 0.192167
vt 0.500000 0.165170
vt 0.513538 0.176949
vt 0.500000 0.171718
vt 0.486462 0.176949
vt 0.500000 0.186182
vt 0.508818 0.192407
vt 0.491182 0.192407
vt 0.515232 0.190709
vt 0.484768 0.190709
vt 0.516908 0.181873
vt 0.483092 0.181873
vt 0.544209 0.172814
vt 0.455791 0.172814
vt 0.541327 0.154899
vt 0.458673 0.154899
vt 0.578661 0.139176
vt 0.421339 0.139176
vt 0.583245 0.154155
vt 0.416755 0.154155
vt 0.500000 0.089977
vt 0.509911 0.090724
vt 0.490089 0.090724
vt 0.509713 0.082236
vt 0.490287 0.082236
vt 0.505196 0.077083
vt 0.494804 0.077083
vt 0.500000 0.075473
vt 0.503445 0.080840
vt 0.500000 0.080320
vt 0.496555 0.080840
vt 0.506660 0.083289
vt 0.493340 0.083289
vt 0.506822 0.086791
vt 0.493178 0.086791
vt 0.500000 0.085637
vt 0.562361 0.284338
vt 0.559190 0.294882
vt 0.437639 0.284338
vt 0.440810 0.294882
vt 0.563180 0.307151
vt 0.436820 0.307151
vt 0.570458 0.318697
vt 0.429542 0.318697
vt 0.569243 0.278245
vt 0.430757 0.278245
vt 0.589914 0.271772
vt 0.410086 0.271772
vt 0.602190 0.277180
vt 0.397810 0.277180
vt 0.617110 0.287175
vt 0.382890 0.287175
vt 0.618074 0.299197
vt 0.381926 0.299197
vt 0.615871 0.307438
vt 0.384129 0.307438
vt 0.598424 0.313725
vt 0.401576 0.313725
vt 0.590828 0.319797
vt 0.409172 0.319797
vt 0.582130 0.320991
vt 0.417870 0.320991
vt 0.578615 0.309394
vt 0.583998 0.312892
vt 0.421385 0.309394
vt 0.416002 0.312892
vt 0.589656 0.312336
vt 0.410344 0.312336
vt 0.596347 0.309249
vt 0.403653 0.309249
vt 0.606014 0.302517
vt 0.393986 0.302517
vt 0.607735 0.297520
vt 0.392265 0.297520
vt 0.606985 0.291216
vt 0.393015 0.291216
vt 0.598275 0.283083
vt 0.401725 0.283083
vt 0.589866 0.280167
vt 0.410134 0.280167
vt 0.576352 0.284624
vt 0.423648 0.284624
vt 0.572831 0.289915
vt 0.427169 0.289915
vt 0.573307 0.303342
vt 0.426693 0.303342
vt 0.572447 0.295716
vt 0.427553 0.295716
vt 0.529647 0.428636
vt 0.500000 0.428636
vt 0.470353 0.428636
vt 0.584616 0.428636
vt 0.415384 0.428636
vt 0.622301 0.417889
vt 0.377699 0.417889
vt 0.666214 0.388954
vt 0.333786 0.388954
vt 0.701481 0.344467
vt 0.298519 0.344467
vt 0.712163 0.315527
vt 0.287837 0.315527
vt 0.704305 0.260225
vt 0.295695 0.260225
vt 0.672947 0.224880
vt 0.327053 0.224880
vt 0.640497 0.198841
vt 0.359503 0.198841
vt 0.603553 0.023452
vt 0.625128 0.029461
vt 0.635753 0.082198
vt 0.598617 0.056841
vt 0.364247 0.082198
vt 0.374872 0.029461
vt 0.396447 0.023452
vt 0.401383 0.056841
vt 0.546781 0.009442
vt 0.556354 0.040906
vt 0.453219 0.009442
vt 0.443646 0.040906
vt 0.500000 0.033223
vt 0.527159 0.049514
vt 0.472841 0.049514
vt 0.537222 0.060794
vt 0.462778 0.060794
vt 0.558499 0.065137
vt 0.441501 0.065137
vt 0.588127 0.085177
vt 0.411873 0.085177
vt 0.607239 0.113940
vt 0.392761 0.113940
vt 0.612663 0.133675
vt 0.605467 0.151503
vt 0.394533 0.151503
vt 0.387337 0.133675
vt 0.600708 0.162985
vt 0.399292 0.162985
vt 0.922374 0.064228
vt 0.859647 0.117994
vt 0.823287 0.101559
vt 0.861342 0.027230
vt 0.176713 0.101559
vt 0.140353 0.117994
vt 0.077626 0.064228
vt 0.138658 0.027230
vt 0.765863 0.087001
vt 0.774604 0.010837
vt 0.234137 0.087001
vt 0.225396 0.010837
vt 0.661952 0.087561
vt 0.647010 0.028716
vt 0.338048 0.087561
vt 0.352990 0.028716
vt 0.743592 0.198572
vt 0.766410 0.233065
vt 0.256408 0.198572
vt 0.233590 0.233065
vt 0.987633 0.154243
vt 0.889478 0.177602
vt 0.110522 0.177602
vt 0.012367 0.154243
vt 0.899807 0.420886
vt 0.844317 0.347370
vt 0.881169 0.309153
vt 0.958963 0.357385
vt 0.118831 0.309153
vt 0.155683 0.347370
vt 0.100193 0.420886
vt 0.041037 0.357385
vt 0.903302 0.261367
vt 0.999860 0.253531
vt 0.096698 0.261367
vt 0.000140 0.253531
vt 0.724763 0.340212
vt 0.744725 0.304629
vt 0.766113 0.319494
vt 0.255275 0.304629
vt 0.275237 0.340212
vt 0.233887 0.319494
vt 0.793427 0.280495
vt 0.826663 0.297810
vt 0.206573 0.280495
vt 0.173337 0.297810
vt 0.823620 0.254612
vt 0.855331 0.267956
vt 0.176380 0.254612
vt 0.144669 0.267956
vt 0.835860 0.225225
vt 0.868309 0.233525
vt 0.164140 0.225225
vt 0.131691 0.233525
vt 0.813499 0.190705
vt 0.851288 0.181145
vt 0.148712 0.181145
vt 0.186501 0.190705
vt 0.772263 0.374010
vt 0.227737 0.374010
vt 0.744519 0.390057
vt 0.255481 0.390057
vt 0.824765 0.470987
vt 0.175235 0.470987
vt 0.792141 0.464714
vt 0.742181 0.461543
vt 0.726855 0.432574
vt 0.273145 0.432574
vt 0.257819 0.461543
vt 0.207859 0.464714
vt 0.795638 0.489991
vt 0.204362 0.489991
vt 0.786137 0.227788
vt 0.213863 0.227788
vt 0.802950 0.203415
vt 0.197050 0.203415
vt 0.769334 0.128771
vt 0.691484 0.146686
vt 0.230666 0.128771
vt 0.308516 0.146686
vt 0.780113 0.169386
vt 0.219887 0.169386
vt 0.803789 0.171181
vt 0.830917 0.139518
vt 0.169083 0.139518
vt 0.196211 0.171181
vt 0.574628 0.959188
vt 0.464516 0.959188
vt 0.477326 0.891852
vt 0.545439 0.884582
vt 0.272900 0.891852
vt 0.285710 0.959188
vt 0.175598 0.959188
vt 0.204787 0.884582
vt 0.605134 0.846978
vt 0.715894 0.897069
vt 0.145092 0.846978
vt 0.034332 0.897069
vt 0.605360 0.784410
vt 0.683874 0.757011
vt 0.144866 0.784410
vt 0.066352 0.757011
vt 0.574835 0.744212
vt 0.617867 0.719156
vt 0.175391 0.744212
vt 0.132359 0.719156
vt 0.534996 0.712528
vt 0.568728 0.682132
vt 0.215230 0.712528
vt 0.181498 0.682132
vt 0.483006 0.686791
vt 0.508539 0.641024
vt 0.267220 0.686791
vt 0.241687 0.641024
vt 0.513415 0.736977
vt 0.478880 0.719593
vt 0.271346 0.719593
vt 0.236811 0.736977
vt 0.541117 0.760754
vt 0.209109 0.760754
vt 0.557599 0.789442
vt 0.192627 0.789442
vt 0.553841 0.821849
vt 0.196385 0.821849
vt 0.524671 0.842380
vt 0.225555 0.842380
vt 0.485193 0.845321
vt 0.265033 0.845321
vt 0.786150 0.181127
vt 0.770208 0.191225
vt 0.213850 0.181127
vt 0.229792 0.191225
vt 0.408153 0.587507
vt 0.409610 0.674022
vt 0.342073 0.587507
vt 0.340616 0.674022
vt 0.400301 0.910556
vt 0.414155 0.878318
vt 0.336071 0.878318
vt 0.349925 0.910556
vt 0.443630 0.713731
vt 0.306596 0.713731
vt 0.429725 0.728622
vt 0.392812 0.710774
vt 0.357414 0.710774
vt 0.320501 0.728622
vt 0.422979 0.754609
vt 0.432640 0.746527
vt 0.327247 0.754609
vt 0.317586 0.746527
vt 0.427719 0.796173
vt 0.391578 0.815187
vt 0.358648 0.815187
vt 0.322507 0.796173
vt 0.448277 0.830976
vt 0.301949 0.830976
vt 0.797710 0.195652
vt 0.802580 0.199758
vt 0.197420 0.199758
vt 0.202290 0.195652
vt 0.789609 0.184671
vt 0.210391 0.184671
vt 0.466042 0.804091
vt 0.490498 0.816075
vt 0.284184 0.804091
vt 0.259728 0.816075
vt 0.448042 0.783921
vt 0.302184 0.783921
vt 0.438745 0.764960
vt 0.311481 0.764960
vt 0.445216 0.756351
vt 0.305010 0.756351
vt 0.449819 0.743458
vt 0.300407 0.743458
vt 0.456307 0.732687
vt 0.293919 0.732687
vt 0.475471 0.740871
vt 0.274755 0.740871
vt 0.514211 0.817769
vt 0.236015 0.817769
vt 0.527961 0.808598
vt 0.222265 0.808598
vt 0.530079 0.790754
vt 0.220147 0.790754
vt 0.518620 0.772385
vt 0.231606 0.772385
vt 0.498668 0.755033
vt 0.251558 0.755033
vt 0.468029 0.756171
vt 0.459660 0.770459
vt 0.282197 0.756171
vt 0.290566 0.770459
vt 0.487167 0.769899
vt 0.477354 0.785393
vt 0.263059 0.769899
vt 0.272872 0.785393
vt 0.504617 0.782999
vt 0.496545 0.797122
vt 0.245609 0.782999
vt 0.253681 0.797122
vt 0.516137 0.792591
vt 0.513713 0.804019
vt 0.234089 0.792591
vt 0.236513 0.804019
vt 0.574269 0.607668
vt 0.613510 0.655816
vt 0.175957 0.607668
vt 0.136716 0.655816
vt 0.644031 0.693270
vt 0.106195 0.693270
vt 0.668163 0.712097
vt 0.082063 0.712097
vt 0.727131 0.698475
vt 0.676584 0.686010
vt 0.023095 0.698475
vt 0.073642 0.686010
vt 0.729804 0.624370
vt 0.667013 0.640198
vt 0.020422 0.624370
vt 0.083213 0.640198
vt 0.721292 0.572934
vt 0.648152 0.594596
vt 0.028934 0.572934
vt 0.102074 0.594596
vt 0.630034 0.557583
vt 0.717709 0.538143
vt 0.032517 0.538143
vt 0.120192 0.557583
vt 0.526877 0.539235
vt 0.223349 0.539235
s 0
usemtl Rest
f 47/1/1 1/2/1 3/3/1 45/4/1
f 4/5/2 2/6/2 48/7/2 46/8/2
f 45/4/3 3/3/3 5/9/3 43/10/3
f 6/11/4 4/5/4 46/8/4 44/12/4
f 3/3/5 9/13/5 7/14/5 5/9/5
f 8/15/6 10/16/6 4/5/6 6/11/6
f 1/2/7 11/17/7 9/13/7 3/3/7
f 10/16/8 12/18/8 2/6/8 4/5/8
f 11/17/9 13/19/9 15/20/9 9/13/9
f 16/21/10 14/22/10 12/18/10 10/16/10
f 9/13/11 15/20/11 17/23/11 7/14/11
f 18/24/12 16/21/12 10/16/12 8/15/12
f 15/20/13 21/25/13 19/26/13 17/23/13
f 20/27/14 22/28/14 16/21/14 18/24/14
f 13/19/15 23/29/15 21/25/15 15/20/15
f 22/28/16 24/30/16 14/22/16 16/21/16
f 23/29/17 25/31/17 27/32/17 21/25/17
f 28/33/18 26/34/18 24/30/18 22/28/18
f 21/25/19 27/32/19 29/35/19 19/26/19
f 30/36/20 28/33/20 22/28/20 20/27/20
f 27/32/21 33/37/21 31/38/21 29/35/21
f 32/39/22 34/40/22 28/33/22 30/36/22
f 25/31/23 35/41/23 33/37/23 27/32/23
f 34/40/24 36/42/24 26/34/24 28/33/24
f 35/41/25 37/43/25 39/44/25 33/37/25
f 40/45/26 38/46/26 36/42/26 34/40/26
f 33/37/27 39/44/27 41/47/27 31/38/27
f 42/48/28 40/45/28 34/40/28 32/39/28
f 39/44/29 45/4/29 43/10/29 41/47/29
f 44/12/30 46/8/30 40/45/30 42/48/30
f 37/43/31 47/1/31 45/4/31 39/44/31
f 46/8/32 48/7/32 38/46/32 40/45/32
f 47/1/33 37/43/33 51/49/33 49/50/33
f 52/51/34 38/46/34 48/7/34 50/52/34
f 37/43/35 35/41/35 53/53/35 51/49/35
f 54/54/36 36/42/36 38/46/36 52/51/36
f 35/41/37 25/31/37 55/55/37 53/53/37
f 56/56/38 26/34/38 36/42/38 54/54/38
f 25/31/39 23/29/39 57/57/39 55/55/39
f 58/58/40 24/30/40 26/34/40 56/56/40
f 23/29/41 13/19/41 59/59/41 57/57/41
f 60/60/42 14/22/42 24/30/42 58/58/42
f 13/19/43 11/17/43 63/61/43 59/59/43
f 64/62/44 12/18/44 14/22/44 60/60/44
f 11/17/45 1/2/45 65/63/45 63/61/45
f 66/64/46 2/6/46 12/18/46 64/62/46
f 1/2/47 47/1/47 49/50/47 65/63/47
f 50/52/48 48/7/48 2/6/48 66/64/48
f 61/65/49 65/63/49 49/50/49
f 50/52/50 66/64/50 62/66/50
f 63/61/51 65/63/51 61/65/51
f 62/66/52 66/64/52 64/62/52
f 61/65/53 59/59/53 63/61/53
f 64/62/54 60/60/54 62/66/54
f 61/65/55 57/57/55 59/59/55
f 60/60/56 58/58/56 62/66/56
f 61/65/57 55/55/57 57/57/57
f 58/58/58 56/56/58 62/66/58
f 61/65/59 53/53/59 55/55/59
f 56/56/60 54/54/60 62/66/60
f 61/65/61 51/49/61 53/53/61
f 54/54/62 52/51/62 62/66/62
f 61/65/63 49/50/63 51/49/63
f 52/51/64 50/52/64 62/66/64
f 89/67/65 174/68/65 176/69/65 91/70/65
f 176/69/66 175/71/66 90/72/66 91/70/66
f 87/73/67 172/74/67 174/68/67 89/67/67
f 175/71/68 173/75/68 88/76/68 90/72/68
f 85/77/69 170/78/69 172/74/69 87/73/69
f 173/75/70 171/79/70 86/80/70 88/76/70
f 83/81/71 168/82/71 170/78/71 85/77/71
f 171/79/72 169/83/72 84/84/72 86/80/72
f 81/85/73 166/86/73 168/82/73 83/81/73
f 169/83/74 167/87/74 82/88/74 84/84/74
f 79/89/75 92/90/75 146/91/75 164/92/75
f 147/93/76 93/94/76 80/95/76 165/96/76
f 92/90/77 94/97/77 148/98/77 146/91/77
f 149/99/78 95/100/78 93/94/78 147/93/78
f 94/97/79 96/101/79 150/102/79 148/98/79
f 151/103/80 97/104/80 95/100/80 149/99/80
f 96/101/81 98/105/81 152/106/81 150/102/81
f 153/107/82 99/108/82 97/104/82 151/103/82
f 98/105/83 100/109/83 154/110/83 152/106/83
f 155/111/84 101/112/84 99/108/84 153/107/84
f 100/109/85 102/113/85 156/114/85 154/110/85
f 157/115/86 103/116/86 101/112/86 155/111/86
f 102/113/87 104/117/87 158/118/87 156/114/87
f 159/119/88 105/120/88 103/116/88 157/115/88
f 104/117/89 106/121/89 160/122/89 158/118/89
f 161/123/90 107/124/90 105/120/90 159/119/90
f 106/121/91 108/125/91 162/126/91 160/122/91
f 163/127/92 109/128/92 107/124/92 161/123/92
f 108/125/93 67/129/93 68/130/93 162/126/93
f 68/130/94 67/129/94 109/128/94 163/127/94
f 110/131/95 128/132/95 160/122/95 162/126/95
f 161/123/96 129/133/96 111/134/96 163/127/96
f 128/132/97 179/135/97 158/118/97 160/122/97
f 159/119/98 180/136/98 129/133/98 161/123/98
f 126/137/99 156/114/99 158/118/99 179/135/99
f 159/119/100 157/115/100 127/138/100 180/136/100
f 124/139/101 154/110/101 156/114/101 126/137/101
f 157/115/102 155/111/102 125/140/102 127/138/102
f 122/141/103 152/106/103 154/110/103 124/139/103
f 155/111/104 153/107/104 123/142/104 125/140/104
f 120/143/105 150/102/105 152/106/105 122/141/105
f 153/107/106 151/103/106 121/144/106 123/142/106
f 118/145/107 148/98/107 150/102/107 120/143/107
f 151/103/108 149/99/108 119/146/108 121/144/108
f 116/147/109 146/91/109 148/98/109 118/145/109
f 149/99/110 147/93/110 117/148/110 119/146/110
f 114/149/111 164/92/111 146/91/111 116/147/111
f 147/93/112 165/96/112 115/150/112 117/148/112
f 114/149/113 181/151/113 177/152/113 164/92/113
f 177/152/114 182/153/114 115/150/114 165/96/114
f 110/131/115 162/126/115 68/130/115 112/154/115
f 68/130/116 163/127/116 111/134/116 113/155/116
f 112/154/117 68/130/117 178/156/117 183/157/117
f 178/156/118 68/130/118 113/155/118 184/158/118
f 177/152/119 181/151/119 183/157/119 178/156/119
f 184/158/120 182/153/120 177/152/120 178/156/120
f 135/159/121 137/160/121 176/69/121 174/68/121
f 176/69/122 137/160/122 136/161/122 175/71/122
f 133/162/123 135/159/123 174/68/123 172/74/123
f 175/71/124 136/161/124 134/163/124 173/75/124
f 131/164/125 133/162/125 172/74/125 170/78/125
f 173/75/126 134/163/126 132/165/126 171/79/126
f 166/86/127 187/166/127 185/167/127 168/82/127
f 186/168/128 188/169/128 167/87/128 169/83/128
f 131/164/129 170/78/129 168/82/129 185/167/129
f 169/83/130 171/79/130 132/165/130 186/168/130
f 144/170/131 190/171/131 189/172/131 187/166/131
f 189/172/132 190/171/132 145/173/132 188/169/132
f 185/167/133 187/166/133 189/172/133 69/174/133
f 189/172/134 188/169/134 186/168/134 69/174/134
f 130/175/135 131/164/135 185/167/135 69/174/135
f 186/168/136 132/165/136 130/175/136 69/174/136
f 142/176/137 193/177/137 191/178/137 144/170/137
f 192/179/138 194/180/138 143/181/138 145/173/138
f 140/182/139 195/183/139 193/177/139 142/176/139
f 194/180/140 196/184/140 141/185/140 143/181/140
f 139/186/141 197/187/141 195/183/141 140/182/141
f 196/184/142 198/188/142 139/186/142 141/185/142
f 138/189/143 71/190/143 197/187/143 139/186/143
f 198/188/144 71/190/144 138/189/144 139/186/144
f 190/171/145 144/170/145 191/178/145 70/191/145
f 192/179/146 145/173/146 190/171/146 70/191/146
f 70/191/147 191/178/147 206/192/147 208/193/147
f 207/194/148 192/179/148 70/191/148 208/193/148
f 71/190/149 199/195/149 200/196/149 197/187/149
f 201/197/150 199/195/150 71/190/150 198/188/150
f 197/187/151 200/196/151 202/198/151 195/183/151
f 203/199/152 201/197/152 198/188/152 196/184/152
f 195/183/153 202/198/153 204/200/153 193/177/153
f 205/201/154 203/199/154 196/184/154 194/180/154
f 193/177/155 204/200/155 206/192/155 191/178/155
f 207/194/156 205/201/156 194/180/156 192/179/156
f 199/195/157 204/200/157 202/198/157 200/196/157
f 203/199/158 205/201/158 199/195/158 201/197/158
f 199/195/159 208/193/159 206/192/159 204/200/159
f 207/194/160 208/193/160 199/195/160 205/201/160
f 139/186/161 140/182/161 164/92/161 177/152/161
f 165/96/162 141/185/162 139/186/162 177/152/162
f 140/182/163 142/176/163 211/202/163 164/92/163
f 212/203/164 143/181/164 141/185/164 165/96/164
f 142/176/165 144/170/165 213/204/165 211/202/165
f 214/205/166 145/173/166 143/181/166 212/203/166
f 144/170/167 187/166/167 166/86/167 213/204/167
f 167/87/168 188/169/168 145/173/168 214/205/168
f 81/85/169 209/206/169 213/204/169 166/86/169
f 214/205/170 210/207/170 82/88/170 167/87/170
f 209/206/171 215/208/171 211/202/171 213/204/171
f 212/203/172 216/209/172 210/207/172 214/205/172
f 79/89/173 164/92/173 211/202/173 215/208/173
f 212/203/174 165/96/174 80/95/174 216/209/174
f 131/164/175 130/175/175 72/210/175 222/211/175
f 72/210/176 130/175/176 132/165/176 223/212/176
f 133/162/177 131/164/177 222/211/177 220/213/177
f 223/212/178 132/165/178 134/163/178 221/214/178
f 135/159/179 133/162/179 220/213/179 218/215/179
f 221/214/180 134/163/180 136/161/180 219/216/180
f 137/160/181 135/159/181 218/215/181 217/217/181
f 219/216/182 136/161/182 137/160/182 217/217/182
f 217/217/183 218/215/183 229/218/183 231/219/183
f 230/220/184 219/216/184 217/217/184 231/219/184
f 218/215/185 220/213/185 227/221/185 229/218/185
f 228/222/186 221/214/186 219/216/186 230/220/186
f 220/213/187 222/211/187 225/223/187 227/221/187
f 226/224/188 223/212/188 221/214/188 228/222/188
f 222/211/189 72/210/189 224/225/189 225/223/189
f 224/225/190 72/210/190 223/212/190 226/224/190
f 224/225/191 231/219/191 229/218/191 225/223/191
f 230/220/192 231/219/192 224/225/192 226/224/192
f 225/223/193 229/218/193 227/221/193
f 228/222/194 230/220/194 226/224/194
f 183/157/195 181/151/195 234/226/195 232/227/195
f 235/228/196 182/153/196 184/158/196 233/229/196
f 112/154/197 183/157/197 232/227/197 254/230/197
f 233/229/198 184/158/198 113/155/198 255/231/198
f 110/131/199 112/154/199 254/230/199 256/232/199
f 255/231/200 113/155/200 111/134/200 257/233/200
f 181/151/201 114/149/201 252/234/201 234/226/201
f 253/235/202 115/150/202 182/153/202 235/228/202
f 114/149/203 116/147/203 250/236/203 252/234/203
f 251/237/204 117/148/204 115/150/204 253/235/204
f 116/147/205 118/145/205 248/238/205 250/236/205
f 249/239/206 119/146/206 117/148/206 251/237/206
f 118/145/207 120/143/207 246/240/207 248/238/207
f 247/241/208 121/144/208 119/146/208 249/239/208
f 120/143/209 122/141/209 244/242/209 246/240/209
f 245/243/210 123/142/210 121/144/210 247/241/210
f 122/141/211 124/139/211 242/244/211 244/242/211
f 243/245/212 125/140/212 123/142/212 245/243/212
f 124/139/213 126/137/213 240/246/213 242/244/213
f 241/247/214 127/138/214 125/140/214 243/245/214
f 126/137/215 179/135/215 236/248/215 240/246/215
f 237/249/216 180/136/216 127/138/216 241/247/216
f 179/135/217 128/132/217 238/250/217 236/248/217
f 239/251/218 129/133/218 180/136/218 237/249/218
f 128/132/219 110/131/219 256/232/219 238/250/219
f 257/233/220 111/134/220 129/133/220 239/251/220
f 238/250/221 256/232/221 258/252/221 276/253/221
f 259/254/222 257/233/222 239/251/222 277/255/222
f 236/248/223 238/250/223 276/253/223 278/256/223
f 277/255/224 239/251/224 237/249/224 279/257/224
f 240/246/225 236/248/225 278/256/225 274/258/225
f 279/257/226 237/249/226 241/247/226 275/259/226
f 242/244/227 240/246/227 274/258/227 272/260/227
f 275/259/228 241/247/228 243/245/228 273/261/228
f 244/242/229 242/244/229 272/260/229 270/262/229
f 273/261/230 243/245/230 245/243/230 271/263/230
f 246/240/231 244/242/231 270/262/231 268/264/231
f 271/263/232 245/243/232 247/241/232 269/265/232
f 248/238/233 246/240/233 268/264/233 266/266/233
f 269/265/234 247/241/234 249/239/234 267/267/234
f 250/236/235 248/238/235 266/266/235 264/268/235
f 267/267/236 249/239/236 251/237/236 265/269/236
f 252/234/237 250/236/237 264/268/237 262/270/237
f 265/269/238 251/237/238 253/235/238 263/271/238
f 234/226/239 252/234/239 262/270/239 280/272/239
f 263/271/240 253/235/240 235/228/240 281/273/240
f 256/232/241 254/230/241 260/274/241 258/252/241
f 261/275/242 255/231/242 257/233/242 259/254/242
f 254/230/243 232/227/243 282/276/243 260/274/243
f 283/277/244 233/229/244 255/231/244 261/275/244
f 232/227/245 234/226/245 280/272/245 282/276/245
f 281/273/246 235/228/246 233/229/246 283/277/246
f 67/129/247 108/125/247 284/278/247 73/279/247
f 285/280/248 109/128/248 67/129/248 73/279/248
f 108/125/249 106/121/249 286/281/249 284/278/249
f 287/282/250 107/124/250 109/128/250 285/280/250
f 106/121/251 104/117/251 288/283/251 286/281/251
f 289/284/252 105/120/252 107/124/252 287/282/252
f 104/117/253 102/113/253 290/285/253 288/283/253
f 291/286/254 103/116/254 105/120/254 289/284/254
f 102/113/255 100/109/255 292/287/255 290/285/255
f 293/288/256 101/112/256 103/116/256 291/286/256
f 100/109/257 98/105/257 294/289/257 292/287/257
f 295/290/258 99/108/258 101/112/258 293/288/258
f 98/105/259 96/101/259 296/291/259 294/289/259
f 297/292/260 97/104/260 99/108/260 295/290/260
f 96/101/261 94/97/261 298/293/261 296/291/261
f 299/294/262 95/100/262 97/104/262 297/292/262
f 94/97/263 92/90/263 300/295/263 298/293/263
f 301/296/264 93/94/264 95/100/264 299/294/264
f 308/297/265 309/298/265 328/299/265 338/300/265
f 329/301/266 309/302/266 308/303/266 339/304/266
f 307/305/267 308/297/267 338/300/267 336/306/267
f 339/304/268 308/303/268 307/307/268 337/308/268
f 306/309/269 307/305/269 336/306/269 340/310/269
f 337/308/270 307/307/270 306/309/270 341/311/270
f 89/67/271 91/70/271 306/309/271 340/310/271
f 306/309/272 91/70/272 90/72/272 341/311/272
f 87/73/273 89/67/273 340/310/273 334/312/273
f 341/311/274 90/72/274 88/76/274 335/313/274
f 85/77/275 87/73/275 334/312/275 330/314/275
f 335/313/276 88/76/276 86/80/276 331/315/276
f 83/81/277 85/77/277 330/314/277 332/316/277
f 331/315/278 86/80/278 84/84/278 333/317/278
f 330/314/279 336/306/279 338/300/279 332/316/279
f 339/304/280 337/308/280 331/315/280 333/317/280
f 330/314/281 334/312/281 340/310/281 336/306/281
f 341/311/282 335/313/282 331/315/282 337/308/282
f 326/318/283 332/316/283 338/300/283 328/299/283
f 339/304/284 333/317/284 327/319/284 329/301/284
f 81/85/285 83/81/285 332/316/285 326/318/285
f 333/317/286 84/84/286 82/88/286 327/319/286
f 209/206/287 342/320/287 344/321/287 215/208/287
f 345/322/288 343/323/288 210/207/288 216/209/288
f 81/85/289 326/318/289 342/320/289 209/206/289
f 343/323/290 327/319/290 82/88/290 210/207/290
f 79/89/291 215/208/291 344/321/291 346/324/291
f 345/322/292 216/209/292 80/95/292 347/325/292
f 79/89/293 346/324/293 300/295/293 92/90/293
f 301/296/294 347/325/294 80/95/294 93/94/294
f 77/326/295 324/327/295 352/328/295 304/329/295
f 353/330/296 325/331/296 77/332/296 304/333/296
f 304/329/297 352/328/297 350/334/297 78/335/297
f 351/336/298 353/330/298 304/333/298 78/337/298
f 78/335/299 350/334/299 348/338/299 305/339/299
f 349/340/300 351/336/300 78/337/300 305/341/300
f 305/339/301 348/338/301 328/299/301 309/298/301
f 329/301/302 349/340/302 305/341/302 309/302/302
f 326/318/303 328/299/303 348/338/303 342/320/303
f 349/340/304 329/301/304 327/319/304 343/323/304
f 296/291/305 298/293/305 318/342/305 310/343/305
f 319/344/306 299/294/306 297/292/306 311/345/306
f 363/365/316 295/290/316 293/366/316 365/367/316
f 365/367/334 293/366/334 291/387/334 361/385/334
f 284/390/337 286/391/337 288/392/337 290/386/337
f 289/393/338 287/394/338 285/395/338 291/387/338
f 361/385/340 291/387/340 285/395/340 74/389/340
f 73/396/341 284/390/341 74/388/341
f 74/389/342 285/395/342 73/397/342
f 311/345/344 297/292/344 295/290/344 363/365/344
f 369/370/346 313/399/346 311/345/346 363/365/346
f 348/338/351 350/334/351 386/402/351 384/403/351
f 387/404/352 351/336/352 349/340/352 385/405/352
f 318/342/353 384/403/353 386/402/353 320/406/353
f 387/404/354 385/405/354 319/344/354 321/407/354
f 298/293/355 300/295/355 384/403/355 318/342/355
f 385/405/356 301/296/356 299/294/356 319/344/356
f 300/295/357 344/321/357 342/320/357 384/403/357
f 343/323/358 345/322/358 301/296/358 385/405/358
f 342/320/359 348/338/359 384/403/359
f 385/405/360 349/340/360 343/323/360
f 300/295/361 346/324/361 344/321/361
f 345/322/362 347/325/362 301/296/362
f 320/406/367 386/402/367 380/409/367 322/408/367
f 381/410/368 387/404/368 321/407/368 323/411/368
f 350/334/369 352/328/369 380/409/369 386/402/369
f 381/410/370 353/330/370 351/336/370 387/404/370
f 324/327/371 380/409/371 352/328/371
f 353/330/372 381/410/372 325/331/372
f 400/412/373 388/413/373 414/414/373 402/415/373
f 415/416/374 389/417/374 401/418/374 403/419/374
f 400/412/375 402/415/375 404/420/375 398/421/375
f 405/422/376 403/419/376 401/418/376 399/423/376
f 398/421/377 404/420/377 406/424/377 396/425/377
f 407/426/378 405/422/378 399/423/378 397/427/378
f 396/425/379 406/424/379 408/428/379 394/429/379
f 409/430/380 407/426/380 397/427/380 395/431/380
f 394/429/381 408/428/381 410/432/381 392/433/381
f 411/434/382 409/430/382 395/431/382 393/435/382
f 392/433/383 410/432/383 412/436/383 390/437/383
f 413/438/384 411/434/384 393/435/384 391/439/384
f 410/432/385 420/440/385 418/441/385 412/436/385
f 419/442/386 421/443/386 411/434/386 413/438/386
f 408/428/387 422/444/387 420/440/387 410/432/387
f 421/443/388 423/445/388 409/430/388 411/434/388
f 406/424/389 424/446/389 422/444/389 408/428/389
f 423/445/390 425/447/390 407/426/390 409/430/390
f 404/420/391 426/448/391 424/446/391 406/424/391
f 425/447/392 427/449/392 405/422/392 407/426/392
f 402/415/393 428/450/393 426/448/393 404/420/393
f 427/449/394 429/451/394 403/419/394 405/422/394
f 402/415/395 414/414/395 416/452/395 428/450/395
f 417/453/396 415/416/396 403/419/396 429/451/396
f 318/342/397 320/406/397 444/454/397 442/455/397
f 445/456/398 321/407/398 319/344/398 443/457/398
f 320/458/399 390/437/399 412/436/399 444/459/399
f 413/438/400 391/439/400 321/460/400 445/461/400
f 310/343/401 318/342/401 442/455/401 312/398/401
f 443/457/402 319/344/402 311/345/402 313/399/402
f 382/462/403 430/463/403 414/414/403 388/413/403
f 415/416/404 431/464/404 383/465/404 389/417/404
f 412/436/405 418/441/405 440/466/405 444/459/405
f 441/467/406 419/442/406 413/438/406 445/461/406
f 438/468/407 446/469/407 444/459/407 440/466/407
f 445/461/408 447/470/408 439/471/408 441/467/408
f 434/472/409 446/469/409 438/468/409 436/473/409
f 439/471/410 447/470/410 435/474/410 437/475/410
f 432/476/411 448/477/411 446/469/411 434/472/411
f 447/470/412 449/478/412 433/479/412 435/474/412
f 430/463/413 448/477/413 432/476/413 450/480/413
f 433/479/414 449/478/414 431/464/414 451/481/414
f 414/414/415 430/463/415 450/480/415 416/452/415
f 451/481/416 431/464/416 415/416/416 417/453/416
f 312/398/417 448/482/417 430/483/417 382/400/417
f 431/484/418 449/485/418 313/399/418 383/401/418
f 312/398/419 442/455/419 446/486/419 448/482/419
f 447/487/420 443/457/420 313/399/420 449/485/420
f 442/455/421 444/454/421 446/486/421
f 447/487/422 445/456/422 443/457/422
f 416/452/423 450/480/423 452/488/423 476/489/423
f 453/490/424 451/481/424 417/453/424 477/491/424
f 450/480/425 432/476/425 462/492/425 452/488/425
f 463/493/426 433/479/426 451/481/426 453/490/426
f 432/476/427 434/472/427 460/494/427 462/492/427
f 461/495/428 435/474/428 433/479/428 463/493/428
f 434/472/429 436/473/429 458/496/429 460/494/429
f 459/497/430 437/475/430 435/474/430 461/495/430
f 436/473/431 438/468/431 456/498/431 458/496/431
f 457/499/432 439/471/432 437/475/432 459/497/432
f 438/468/433 440/466/433 454/500/433 456/498/433
f 455/501/434 441/467/434 439/471/434 457/499/434
f 440/466/435 418/441/435 474/502/435 454/500/435
f 475/503/436 419/442/436 441/467/436 455/501/436
f 428/450/437 416/452/437 476/489/437 464/504/437
f 477/491/438 417/453/438 429/451/438 465/505/438
f 426/448/439 428/450/439 464/504/439 466/506/439
f 465/505/440 429/451/440 427/449/440 467/507/440
f 424/446/441 426/448/441 466/506/441 468/508/441
f 467/507/442 427/449/442 425/447/442 469/509/442
f 422/444/443 424/446/443 468/508/443 470/510/443
f 469/509/444 425/447/444 423/445/444 471/511/444
f 420/440/445 422/444/445 470/510/445 472/512/445
f 471/511/446 423/445/446 421/443/446 473/513/446
f 418/441/447 420/440/447 472/512/447 474/502/447
f 473/513/448 421/443/448 419/442/448 475/503/448
f 458/496/449 456/498/449 480/514/449 478/515/449
f 481/516/450 457/499/450 459/497/450 479/517/450
f 478/515/451 480/514/451 482/518/451 484/519/451
f 483/520/452 481/516/452 479/517/452 485/521/452
f 484/519/453 482/518/453 488/522/453 486/523/453
f 489/524/454 483/520/454 485/521/454 487/525/454
f 486/523/455 488/522/455 490/526/455 492/527/455
f 491/528/456 489/524/456 487/525/456 493/529/456
f 464/504/457 476/489/457 486/523/457 492/527/457
f 487/525/458 477/491/458 465/505/458 493/529/458
f 452/488/459 484/519/459 486/523/459 476/489/459
f 487/525/460 485/521/460 453/490/460 477/491/460
f 452/488/461 462/492/461 478/515/461 484/519/461
f 479/517/462 463/493/462 453/490/462 485/521/462
f 458/496/463 478/515/463 462/492/463 460/494/463
f 463/493/464 479/517/464 459/497/464 461/495/464
f 454/500/465 474/502/465 480/514/465 456/498/465
f 481/516/466 475/503/466 455/501/466 457/499/466
f 472/512/467 482/518/467 480/514/467 474/502/467
f 481/516/468 483/520/468 473/513/468 475/503/468
f 470/510/469 488/522/469 482/518/469 472/512/469
f 483/520/470 489/524/470 471/511/470 473/513/470
f 468/508/471 490/526/471 488/522/471 470/510/471
f 489/524/472 491/528/472 469/509/472 471/511/472
f 466/506/473 492/527/473 490/526/473 468/508/473
f 491/528/474 493/529/474 467/507/474 469/509/474
f 464/504/475 492/527/475 466/506/475
f 467/507/476 493/529/476 465/505/476
f 392/433/477 390/437/477 504/530/477 502/531/477
f 505/532/478 391/439/478 393/435/478 503/533/478
f 394/429/479 392/433/479 502/531/479 500/534/479
f 503/533/480 393/435/480 395/431/480 501/535/480
f 396/425/481 394/429/481 500/534/481 498/536/481
f 501/535/482 395/431/482 397/427/482 499/537/482
f 398/538/483 396/425/483 498/536/483 496/539/483
f 499/537/484 397/427/484 399/540/484 497/541/484
f 400/542/485 398/538/485 496/539/485 494/543/485
f 497/541/486 399/540/486 401/544/486 495/545/486
f 388/546/487 400/542/487 494/543/487 506/547/487
f 495/545/488 401/544/488 389/548/488 507/549/488
f 494/543/489 502/531/489 504/530/489 506/547/489
f 505/532/490 503/533/490 495/545/490 507/549/490
f 494/543/491 496/539/491 500/534/491 502/531/491
f 501/535/492 497/541/492 495/545/492 503/533/492
f 496/539/493 498/536/493 500/534/493
f 501/535/494 499/537/494 497/541/494
f 320/458/499 322/554/499 504/530/499 390/437/499
f 505/532/500 323/555/500 321/460/500 391/439/500
usemtl Hoofd
f 76/346/307 316/347/307 324/327/307 77/326/307
f 325/331/308 317/348/308 76/349/308 77/332/308
f 302/350/309 358/351/309 356/352/309 303/353/309
f 357/354/310 359/355/310 302/356/310 303/357/310
f 303/353/311 356/352/311 354/358/311 75/359/311
f 355/360/312 357/354/312 303/357/312 75/361/312
f 75/359/313 354/358/313 316/347/313 76/346/313
f 317/348/314 355/360/314 75/361/314 76/349/314
f 292/362/315 294/289/315 362/363/315 364/364/315
f 364/364/317 362/363/317 368/368/317 366/369/317
f 369/370/318 363/365/318 365/367/318 367/371/318
f 366/369/319 368/368/319 370/372/319 372/373/319
f 371/374/320 369/370/320 367/371/320 373/375/320
f 372/373/321 370/372/321 376/376/321 374/377/321
f 377/378/322 371/374/322 373/375/322 375/379/322
f 314/380/323 378/381/323 374/377/323 376/376/323
f 375/379/324 379/382/324 315/383/324 377/378/324
f 316/347/325 354/358/325 374/377/325 378/381/325
f 375/379/326 355/360/326 317/348/326 379/382/326
f 354/358/327 356/352/327 372/373/327 374/377/327
f 373/375/328 357/354/328 355/360/328 375/379/328
f 356/352/329 358/351/329 366/369/329 372/373/329
f 367/371/330 359/355/330 357/354/330 373/375/330
f 358/351/331 360/384/331 364/364/331 366/369/331
f 365/367/332 361/385/332 359/355/332 367/371/332
f 290/386/333 292/362/333 364/364/333 360/384/333
f 74/388/335 360/384/335 358/351/335 302/350/335
f 359/355/336 361/385/336 74/389/336 302/356/336
f 284/390/339 290/386/339 360/384/339 74/388/339
f 294/289/343 296/291/343 310/343/343 362/363/343
f 310/343/345 312/398/345 368/368/345 362/363/345
f 312/398/347 382/400/347 370/372/347 368/368/347
f 371/374/348 383/401/348 313/399/348 369/370/348
f 314/380/349 376/376/349 370/372/349 382/400/349
f 371/374/350 377/378/350 315/383/350 383/401/350
f 314/380/363 322/408/363 380/409/363 378/381/363
f 381/410/364 323/411/364 315/383/364 379/382/364
f 316/347/365 378/381/365 380/409/365 324/327/365
f 381/410/366 379/382/366 317/348/366 325/331/366
f 314/550/495 382/551/495 388/546/495 506/547/495
f 389/548/496 383/552/496 315/553/496 507/549/496
f 314/550/497 506/547/497 504/530/497 322/554/497
f 505/532/498 507/549/498 315/553/498 323/555/498
